<svg width="800" height="230" viewBox="115 135 800 230" fill="none" xmlns="http://www.w3.org/2000/svg">
<path d="M900.175 306.839C887.115 306.839 877.031 303.113 869.923 295.661C862.979 288.209 859.508 277.694 859.508 264.114V193.569H835.207V171.462H840.166C846.118 171.462 850.829 169.64 854.301 165.997C857.772 162.354 859.508 157.551 859.508 151.59V140.66H882.569V171.462H912.573V193.569H882.569V263.369C882.569 267.84 883.23 271.732 884.553 275.044C886.041 278.356 888.438 281.006 891.744 282.993C895.05 284.814 899.431 285.725 904.886 285.725C906.043 285.725 907.448 285.642 909.102 285.477C910.92 285.311 912.573 285.146 914.061 284.98V305.349C911.912 305.846 909.515 306.177 906.87 306.342C904.225 306.674 901.993 306.839 900.175 306.839Z" fill="#206E55"/>
<path d="M767.08 308.329C753.69 308.329 742.035 305.017 732.116 298.393C722.198 291.769 715.172 282.827 711.039 271.566L729.389 262.624C733.191 270.572 738.398 276.865 745.011 281.502C751.623 286.139 758.98 288.457 767.08 288.457C774.354 288.457 780.387 286.718 785.181 283.241C789.976 279.763 792.373 275.209 792.373 269.579C792.373 265.604 791.215 262.458 788.901 260.14C786.752 257.656 784.107 255.751 780.966 254.427C777.825 252.936 774.932 251.86 772.287 251.197L752.202 245.484C740.134 242.007 731.29 237.039 725.669 230.58C720.214 224.122 717.486 216.587 717.486 207.976C717.486 200.027 719.47 193.155 723.437 187.359C727.57 181.397 733.108 176.76 740.051 173.448C747.16 170.136 755.095 168.48 763.856 168.48C775.593 168.48 786.091 171.461 795.348 177.423C804.771 183.384 811.466 191.747 815.434 202.511L796.588 211.205C793.612 204.25 789.149 198.785 783.198 194.811C777.246 190.671 770.551 188.601 763.112 188.601C756.335 188.601 750.962 190.34 746.994 193.817C743.027 197.129 741.043 201.352 741.043 206.486C741.043 210.294 742.035 213.441 744.019 215.925C746.003 218.243 748.4 220.065 751.21 221.389C754.02 222.549 756.748 223.542 759.393 224.37L781.214 230.829C792.125 233.975 800.555 238.86 806.507 245.484C812.623 252.108 815.681 260.057 815.681 269.33C815.681 276.782 813.615 283.489 809.482 289.451C805.35 295.412 799.646 300.049 792.373 303.361C785.099 306.673 776.668 308.329 767.08 308.329Z" fill="#206E55"/>
<path d="M622.744 308.319C613.156 308.319 604.477 306.083 596.707 301.612C589.103 297.141 583.152 290.931 578.853 282.982C574.721 274.868 572.654 265.594 572.654 255.162V171.451H595.715V252.678C595.715 259.302 597.038 265.098 599.683 270.066C602.493 275.034 606.295 278.925 611.089 281.74C616.049 284.556 621.669 285.963 627.951 285.963C634.233 285.963 639.771 284.556 644.565 281.74C649.524 278.925 653.327 274.868 655.972 269.569C658.782 264.27 660.187 257.977 660.187 250.69V171.451H683.496V305.338H660.931V279.256L664.65 281.492C661.509 289.938 656.137 296.561 648.532 301.364C641.093 306.001 632.497 308.319 622.744 308.319Z" fill="#206E55"/>
<path d="M475.654 359.996C466.231 359.996 457.469 358.506 449.369 355.525C441.434 352.544 434.574 348.404 428.788 343.105C423.167 337.971 418.869 331.927 415.893 324.972L437.467 315.036C439.781 321.329 444.162 326.628 450.609 330.933C457.221 335.405 465.487 337.64 475.406 337.64C483.01 337.64 489.871 336.15 495.987 333.169C502.269 330.354 507.228 326.048 510.865 320.252C514.502 314.622 516.32 307.75 516.32 299.635V269.579L520.536 274.05C515.907 283.158 509.212 290.113 500.451 294.916C491.854 299.718 482.349 302.119 471.934 302.119C459.371 302.119 448.129 299.221 438.211 293.425C428.292 287.464 420.522 279.432 414.902 269.33C409.281 259.063 406.471 247.72 406.471 235.3C406.471 222.714 409.281 211.371 414.902 201.269C420.522 191.168 428.209 183.219 437.963 177.423C447.881 171.461 459.123 168.48 471.686 168.48C482.101 168.48 491.524 170.882 499.955 175.684C508.551 180.321 515.411 186.779 520.536 195.059L517.064 201.269V171.461H539.629V299.635C539.629 311.227 536.902 321.577 531.447 330.685C525.991 339.793 518.387 346.914 508.633 352.047C499.045 357.347 488.052 359.996 475.654 359.996ZM473.918 279.763C481.853 279.763 488.961 277.776 495.243 273.802C501.69 269.827 506.815 264.528 510.617 257.904C514.419 251.115 516.32 243.58 516.32 235.3C516.32 227.185 514.419 219.733 510.617 212.944C506.815 206.154 501.69 200.772 495.243 196.798C488.961 192.824 481.853 190.836 473.918 190.836C465.818 190.836 458.461 192.824 451.849 196.798C445.236 200.772 440.029 206.154 436.227 212.944C432.59 219.568 430.772 227.02 430.772 235.3C430.772 243.58 432.59 251.115 436.227 257.904C440.029 264.528 445.154 269.827 451.601 273.802C458.213 277.776 465.652 279.763 473.918 279.763Z" fill="#206E55"/>
<path d="M315.447 308.319C305.859 308.319 297.18 306.083 289.41 301.612C281.806 297.141 275.855 290.931 271.557 282.982C267.424 274.868 265.357 265.594 265.357 255.162V171.451H288.418V252.678C288.418 259.302 289.741 265.098 292.386 270.066C295.196 275.034 298.998 278.925 303.792 281.74C308.752 284.556 314.372 285.963 320.654 285.963C326.936 285.963 332.474 284.556 337.268 281.74C342.227 278.925 346.03 274.868 348.675 269.569C351.485 264.27 352.89 257.977 352.89 250.69V171.451H376.199V305.338H353.634V279.256L357.354 281.492C354.213 289.938 348.84 296.561 341.236 301.364C333.797 306.001 325.2 308.319 315.447 308.319Z" fill="#206E55"/>
<path d="M164.634 308.329C155.873 308.329 148.103 306.756 141.325 303.61C134.713 300.298 129.505 295.826 125.703 290.196C121.901 284.4 120 277.776 120 270.324C120 263.203 121.488 256.828 124.463 251.197C127.604 245.401 132.398 240.516 138.846 236.542C145.458 232.567 153.724 229.752 163.642 228.096L213.236 219.899V239.274L168.85 246.726C160.253 248.217 153.972 250.949 150.004 254.923C146.202 258.898 144.301 263.783 144.301 269.579C144.301 275.044 146.45 279.598 150.748 283.241C155.211 286.884 160.749 288.706 167.362 288.706C175.793 288.706 183.067 286.967 189.183 283.489C195.465 279.846 200.342 274.961 203.813 268.834C207.45 262.707 209.268 255.917 209.268 248.465V214.434C209.268 207.148 206.541 201.269 201.086 196.798C195.796 192.161 188.77 189.843 180.008 189.843C172.404 189.843 165.626 191.83 159.675 195.804C153.889 199.613 149.591 204.747 146.781 211.205L126.695 200.772C129.175 194.645 133.142 189.18 138.598 184.378C144.053 179.41 150.417 175.518 157.691 172.703C164.965 169.888 172.569 168.48 180.504 168.48C190.754 168.48 199.763 170.468 207.533 174.442C215.302 178.251 221.336 183.633 225.634 190.588C230.098 197.378 232.329 205.326 232.329 214.434V305.348H209.764V280.012L213.98 281.502C211.17 286.801 207.367 291.438 202.573 295.412C197.779 299.387 192.159 302.533 185.712 304.852C179.264 307.17 172.239 308.329 164.634 308.329Z" fill="#206E55"/>
</svg>
