<svg width="1034" height="480" viewBox="0 0 1034 480" fill="none" xmlns="http://www.w3.org/2000/svg">
<path d="M900.175 306.84C887.115 306.84 877.031 303.114 869.923 295.662C862.979 288.21 859.508 277.694 859.508 264.115V193.57H835.207V171.462H840.166C846.118 171.462 850.829 169.641 854.301 165.997C857.772 162.354 859.508 157.552 859.508 151.59V140.661H882.569V171.462H912.573V193.57H882.569V263.37C882.569 267.841 883.23 271.733 884.553 275.045C886.041 278.357 888.438 281.006 891.744 282.993C895.05 284.815 899.431 285.726 904.886 285.726C906.043 285.726 907.448 285.643 909.102 285.477C910.92 285.312 912.573 285.146 914.061 284.98V305.349C911.912 305.846 909.515 306.177 906.87 306.343C904.225 306.674 901.993 306.84 900.175 306.84Z" fill="#206E55"/>
<path d="M767.08 308.331C753.69 308.331 742.035 305.019 732.116 298.395C722.198 291.771 715.172 282.828 711.039 271.568L729.389 262.625C733.191 270.574 738.398 276.867 745.011 281.504C751.623 286.14 758.98 288.459 767.08 288.459C774.354 288.459 780.387 286.72 785.181 283.242C789.976 279.765 792.373 275.211 792.373 269.58C792.373 265.606 791.215 262.46 788.901 260.141C786.752 257.657 784.107 255.753 780.966 254.428C777.825 252.938 774.932 251.861 772.287 251.199L752.202 245.486C740.134 242.008 731.29 237.04 725.669 230.582C720.214 224.123 717.486 216.589 717.486 207.977C717.486 200.029 719.47 193.156 723.437 187.36C727.57 181.399 733.108 176.762 740.051 173.45C747.16 170.138 755.095 168.482 763.856 168.482C775.593 168.482 786.091 171.463 795.348 177.424C804.771 183.386 811.466 191.749 815.434 202.513L796.588 211.207C793.612 204.251 789.149 198.787 783.198 194.812C777.246 190.672 770.551 188.602 763.112 188.602C756.335 188.602 750.962 190.341 746.994 193.819C743.027 197.131 741.043 201.353 741.043 206.487C741.043 210.296 742.035 213.442 744.019 215.926C746.003 218.245 748.4 220.066 751.21 221.391C754.02 222.55 756.748 223.544 759.393 224.372L781.214 230.83C792.125 233.976 800.555 238.862 806.507 245.486C812.623 252.11 815.681 260.058 815.681 269.332C815.681 276.784 813.615 283.491 809.482 289.452C805.35 295.414 799.646 300.051 792.373 303.363C785.099 306.675 776.668 308.331 767.08 308.331Z" fill="#206E55"/>
<path d="M622.744 308.32C613.156 308.32 604.477 306.084 596.707 301.613C589.103 297.142 583.152 290.932 578.853 282.983C574.721 274.869 572.654 265.595 572.654 255.163V171.452H595.715V252.679C595.715 259.303 597.038 265.099 599.683 270.067C602.493 275.035 606.295 278.926 611.089 281.741C616.049 284.557 621.669 285.964 627.951 285.964C634.233 285.964 639.771 284.557 644.565 281.741C649.524 278.926 653.327 274.869 655.972 269.57C658.782 264.271 660.187 257.978 660.187 250.691V171.452H683.496V305.339H660.931V279.257L664.65 281.493C661.509 289.938 656.137 296.562 648.532 301.365C641.093 306.002 632.497 308.32 622.744 308.32Z" fill="#206E55"/>
<path d="M475.654 359.998C466.231 359.998 457.469 358.507 449.369 355.526C441.434 352.546 434.574 348.406 428.788 343.106C423.167 337.973 418.869 331.929 415.893 324.973L437.467 315.037C439.781 321.33 444.162 326.629 450.609 330.935C457.221 335.406 465.487 337.642 475.406 337.642C483.01 337.642 489.871 336.151 495.987 333.171C502.269 330.355 507.228 326.05 510.865 320.254C514.502 314.623 516.32 307.751 516.32 299.637V269.58L520.536 274.052C515.907 283.16 509.212 290.115 500.451 294.917C491.854 299.719 482.349 302.121 471.934 302.121C459.371 302.121 448.129 299.223 438.211 293.427C428.292 287.465 420.522 279.434 414.902 269.332C409.281 259.065 406.471 247.721 406.471 235.301C406.471 222.716 409.281 211.372 414.902 201.271C420.522 191.169 428.209 183.22 437.963 177.424C447.881 171.463 459.123 168.482 471.686 168.482C482.101 168.482 491.524 170.883 499.955 175.686C508.551 180.322 515.411 186.781 520.536 195.061L517.064 201.271V171.463H539.629V299.637C539.629 311.229 536.902 321.579 531.447 330.687C525.991 339.794 518.387 346.915 508.633 352.049C499.045 357.348 488.052 359.998 475.654 359.998ZM473.918 279.765C481.853 279.765 488.961 277.778 495.243 273.803C501.69 269.829 506.815 264.53 510.617 257.906C514.419 251.116 516.32 243.581 516.32 235.301C516.32 227.187 514.419 219.735 510.617 212.945C506.815 206.156 501.69 200.774 495.243 196.799C488.961 192.825 481.853 190.838 473.918 190.838C465.818 190.838 458.461 192.825 451.849 196.799C445.236 200.774 440.029 206.156 436.227 212.945C432.59 219.569 430.772 227.021 430.772 235.301C430.772 243.581 432.59 251.116 436.227 257.906C440.029 264.53 445.154 269.829 451.601 273.803C458.213 277.778 465.652 279.765 473.918 279.765Z" fill="#206E55"/>
<path d="M315.447 308.32C305.859 308.32 297.18 306.084 289.41 301.613C281.806 297.142 275.855 290.932 271.557 282.983C267.424 274.869 265.357 265.595 265.357 255.163V171.452H288.418V252.679C288.418 259.303 289.741 265.099 292.386 270.067C295.196 275.035 298.998 278.926 303.792 281.741C308.752 284.557 314.372 285.964 320.654 285.964C326.936 285.964 332.474 284.557 337.268 281.741C342.227 278.926 346.03 274.869 348.675 269.57C351.485 264.271 352.89 257.978 352.89 250.691V171.452H376.199V305.339H353.634V279.257L357.354 281.493C354.213 289.938 348.84 296.562 341.236 301.365C333.797 306.002 325.2 308.32 315.447 308.32Z" fill="#206E55"/>
<path d="M164.634 308.331C155.873 308.331 148.103 306.757 141.325 303.611C134.713 300.299 129.505 295.828 125.703 290.197C121.901 284.401 120 277.778 120 270.326C120 263.205 121.488 256.829 124.463 251.199C127.604 245.403 132.398 240.518 138.846 236.543C145.458 232.569 153.724 229.754 163.642 228.098L213.236 219.901V239.276L168.85 246.728C160.253 248.218 153.972 250.95 150.004 254.925C146.202 258.899 144.301 263.784 144.301 269.58C144.301 275.045 146.45 279.599 150.748 283.242C155.211 286.885 160.749 288.707 167.362 288.707C175.793 288.707 183.067 286.968 189.183 283.491C195.465 279.848 200.342 274.962 203.813 268.835C207.45 262.708 209.268 255.918 209.268 248.466V214.436C209.268 207.149 206.541 201.271 201.086 196.799C195.796 192.163 188.77 189.844 180.008 189.844C172.404 189.844 165.626 191.831 159.675 195.806C153.889 199.615 149.591 204.748 146.781 211.207L126.695 200.774C129.175 194.647 133.142 189.182 138.598 184.379C144.053 179.411 150.417 175.52 157.691 172.705C164.965 169.89 172.569 168.482 180.504 168.482C190.754 168.482 199.763 170.469 207.533 174.444C215.302 178.252 221.336 183.634 225.634 190.589C230.098 197.379 232.329 205.328 232.329 214.436V305.35H209.764V280.013L213.98 281.504C211.17 286.803 207.367 291.439 202.573 295.414C197.779 299.388 192.159 302.535 185.712 304.853C179.264 307.171 172.239 308.331 164.634 308.331Z" fill="#206E55"/>
</svg>
