<svg width="24" height="24" viewBox="0 0 24 24" fill="none" xmlns="http://www.w3.org/2000/svg">
<g clip-path="url(#clip0_742_6923)">
<path d="M5.27261 23.6673C4.50096 23.6673 3.73843 23.4729 3.04425 23.0901C1.96121 22.4931 1.17438 21.5104 0.831088 20.3225C0.487796 19.1347 0.626024 17.883 1.22299 16.8L6.48628 7.24707C7.08324 6.16251 8.06602 5.37719 9.25387 5.03238C10.4417 4.68757 11.6934 4.82732 12.7764 5.42428C13.8594 6.02124 14.6463 7.00403 14.9896 8.19188C15.3344 9.38124 15.1946 10.6329 14.5977 11.7159L9.3359 21.2688C8.73894 22.3519 7.75615 23.1387 6.5683 23.482C6.13995 23.6066 5.70552 23.6673 5.27261 23.6673ZM10.548 5.57922C9.17033 5.57922 7.83362 6.30833 7.12425 7.59795L1.86096 17.1509C0.823493 19.0359 1.51159 21.4131 3.39514 22.4506C3.99058 22.7787 4.63615 22.9337 5.27109 22.9337C6.64881 22.9337 7.98552 22.2045 8.69489 20.9149L13.9597 11.3635C14.9972 9.47846 14.3091 7.10124 12.4255 6.06377C11.8301 5.73567 11.1845 5.57922 10.548 5.57922Z" fill="#7A5A2E"/>
<path d="M3.98282 21.7504C3.92358 21.7504 3.86282 21.7352 3.80661 21.7048C2.33472 20.8937 1.79548 19.0359 2.60661 17.5625L3.66231 15.6456C3.75953 15.4693 3.9813 15.4056 4.1575 15.5028C4.3337 15.6 4.3975 15.8218 4.30029 15.998L3.24459 17.9149C2.62788 19.0359 3.03649 20.4486 4.1575 21.0668C4.3337 21.164 4.3975 21.3858 4.30029 21.562C4.23649 21.682 4.11193 21.7504 3.98282 21.7504Z" fill="#7A5A2E"/>
<path d="M11.6479 16.6815C11.5887 16.6815 11.5279 16.6663 11.4717 16.6359L3.9983 12.518C3.8221 12.4207 3.7583 12.199 3.85552 12.0228C3.95273 11.8466 4.17451 11.7828 4.35071 11.88L11.8241 15.998C12.0003 16.0952 12.0641 16.3169 11.9669 16.4931C11.9001 16.6131 11.7755 16.6815 11.6479 16.6815Z" fill="#7A5A2E"/>
<path d="M18.72 19.6694C18.1215 19.6694 17.5246 19.5524 16.9549 19.317C15.8111 18.8461 14.9195 17.9559 14.4441 16.8152L13.0101 13.3701C12.9327 13.1848 13.0208 12.9706 13.2061 12.8932C13.3914 12.8157 13.6056 12.9038 13.683 13.0891L15.117 16.5342C15.9448 18.521 18.2324 19.4658 20.2192 18.638C22.2061 17.8116 23.1494 15.524 22.323 13.5372L20.2284 8.50176L18.1337 3.46784C17.5261 2.00657 16.1104 1.06328 14.5291 1.06328C14.0142 1.06328 13.5114 1.16505 13.0314 1.36404C11.4972 2.00202 10.5342 3.54379 10.6344 5.201C10.6466 5.40151 10.4932 5.57467 10.2927 5.58683C10.0922 5.59898 9.91899 5.44556 9.90684 5.24505C9.78836 3.27796 10.9322 1.44759 12.7519 0.69113C13.32 0.454167 13.9185 0.334167 14.5291 0.334167C15.4329 0.334167 16.3109 0.596952 17.0704 1.09366C17.8481 1.60252 18.4481 2.32708 18.8066 3.18834L20.9013 8.22227L22.996 13.2577C23.4714 14.4 23.4729 15.6592 23.002 16.8015C22.5311 17.9438 21.641 18.837 20.5003 19.3124C19.9261 19.5509 19.323 19.6694 18.72 19.6694Z" fill="#7A5A2E"/>
<path d="M18.725 18.0851C17.5295 18.0851 16.3933 17.3772 15.9057 16.2076L15.0657 14.1873C14.9883 14.002 15.0764 13.7878 15.2617 13.7104C15.447 13.6329 15.6612 13.721 15.7386 13.9063L16.5786 15.9266C17.0708 17.1083 18.4303 17.6688 19.6121 17.1767C19.7974 17.0992 20.0116 17.1873 20.089 17.3726C20.1665 17.558 20.0784 17.7721 19.8931 17.8496C19.5103 18.0091 19.1138 18.0851 18.725 18.0851Z" fill="#7A5A2E"/>
<path d="M14.5841 11.2162C14.4413 11.2162 14.3061 11.1311 14.2469 10.9914C14.1694 10.8061 14.2575 10.5919 14.4428 10.5144L20.4246 8.02633C20.6099 7.94886 20.8241 8.03696 20.9016 8.22228C20.979 8.4076 20.8909 8.62177 20.7056 8.69924L14.7238 11.1873C14.6783 11.2071 14.6312 11.2162 14.5841 11.2162Z" fill="#7A5A2E"/>
</g>
<defs>
<clipPath id="clip0_742_6923">
<rect width="24" height="24" fill="white"/>
</clipPath>
</defs>
</svg>
