<svg width="24" height="24" viewBox="0 0 24 24" fill="none" xmlns="http://www.w3.org/2000/svg">
<path d="M3.42229 18.1844C3.90159 18.7132 4.68525 18.6924 5.14856 18.2294L5.73089 17.6471C6.23925 17.1387 6.87229 16.7628 7.56604 16.5589C8.37304 16.3215 9.11362 15.8817 9.70809 15.2871L16.6218 8.37358L17.2552 9.00705C17.648 9.39982 18.2827 9.39977 18.676 9.00724C18.676 9.00705 18.676 9.00705 18.676 9.00705C19.0676 8.61532 19.0676 7.978 18.676 7.58627L18.0424 6.95261L20.7077 4.28749C21.6201 3.37525 21.6201 1.89072 20.7077 0.978487C19.7953 0.0660655 18.3113 0.0664404 17.3989 0.978487L14.7336 3.64366L14.1001 3.01014C13.72 2.63074 13.0587 2.63111 12.6793 3.01014C12.2863 3.40319 12.2868 4.03933 12.6793 4.43107L13.3127 5.06444L6.40106 11.976C5.80519 12.5717 5.36503 13.3144 5.12784 14.1237C4.92529 14.8154 4.54875 15.4503 4.03931 15.96L3.45914 16.54C3.03708 16.9617 2.96419 17.6809 3.42229 18.1844ZM17.9161 1.4958C18.5435 0.868847 19.563 0.868847 20.1904 1.4958C20.8173 2.12294 20.8173 3.14308 20.1904 3.77022L17.5251 6.43535L15.2508 4.16097L17.9161 1.4958ZM13.1966 3.52764C13.302 3.42185 13.4743 3.41992 13.5828 3.52764L18.1587 8.10358C18.2648 8.21003 18.2652 8.38328 18.1587 8.48978C18.0551 8.59305 17.8754 8.59305 17.7725 8.48978C16.0985 6.81564 14.8515 5.56863 13.1966 3.91366C13.0905 3.80791 13.0892 3.63466 13.1966 3.52764ZM16.1045 7.85632L14.2952 9.6655H9.7462L13.83 5.58185L16.1045 7.85632ZM4.55662 16.4773C5.15287 15.8812 5.59298 15.1385 5.83022 14.3295C6.03276 13.6376 6.40894 13.0025 6.91837 12.4933L9.01467 10.3971H13.5635L9.19078 14.7698C8.68242 15.2782 8.04937 15.654 7.35525 15.8582C6.54895 16.0954 5.80837 16.5349 5.21358 17.1298L4.63125 17.7119C4.46456 17.8786 4.14759 17.906 3.95554 17.6807C3.77883 17.4715 3.83058 17.2032 3.9764 17.0573L4.55662 16.4773Z" fill="#7A5A2E"/>
<path d="M4.10083 23.7056C4.92391 23.7056 5.59375 23.0359 5.59375 22.2127C5.59375 21.5118 4.60169 20.0261 4.40271 19.7355C4.26625 19.5362 3.93541 19.5362 3.79896 19.7355C3.59997 20.0261 2.60791 21.5118 2.60791 22.2127C2.60791 23.0359 3.27775 23.7056 4.10083 23.7056ZM4.10083 20.612C4.50593 21.2635 4.86213 21.9595 4.86213 22.2127C4.86213 22.6324 4.5206 22.974 4.10083 22.974C3.68107 22.974 3.33954 22.6324 3.33954 22.2127C3.33954 21.9599 3.69569 21.2638 4.10083 20.612Z" fill="#7A5A2E"/>
</svg>
