<svg width="24" height="24" viewBox="0 0 24 24" fill="none" xmlns="http://www.w3.org/2000/svg">
<path d="M17.2954 1.01511C16.8855 0.605255 16.3297 0.375 15.75 0.375C15.1704 0.375 14.6145 0.605255 14.2047 1.01511L8.9089 6.31049C8.69944 6.51905 8.53338 6.76704 8.42029 7.04014C8.3072 7.31323 8.24933 7.60603 8.25003 7.90161V8.59836C8.25053 8.79543 8.21199 8.99065 8.13662 9.17274C8.06125 9.35483 7.95054 9.52018 7.8109 9.65924L7.2349 10.2349L5.75778 11.712C5.4691 11.9997 5.29163 12.3804 5.25683 12.7865C5.22203 13.1925 5.33214 13.5978 5.56765 13.9305L3.05215 18.1841C3.00982 18.2558 2.99252 18.3394 3.00297 18.422C3.01343 18.5046 3.05104 18.5813 3.1099 18.6401L4.2349 19.7651C4.29377 19.8239 4.37053 19.8615 4.45308 19.8718C4.53563 19.8822 4.6193 19.8649 4.6909 19.8225L8.94378 17.3077C9.27653 17.5434 9.68201 17.6536 10.0883 17.6187C10.4945 17.5838 10.8753 17.4062 11.163 17.1172L12.6402 15.6401L13.2162 15.0645C13.355 14.9247 13.5203 14.8138 13.7023 14.7384C13.8844 14.6629 14.0796 14.6244 14.2767 14.625H14.9734C15.269 14.6259 15.5618 14.5681 15.8349 14.4549C16.108 14.3417 16.3558 14.1755 16.5642 13.9657L21.8599 8.67036C22.2698 8.2605 22.5 7.70461 22.5 7.12499C22.5 6.54536 22.2698 5.98947 21.8599 5.57961L17.2954 1.01511ZM4.55965 19.029L3.84715 18.3165L6.1009 14.5054L8.3719 16.7764L4.55965 19.029ZM10.6347 16.587C10.4474 16.7659 10.1984 16.8657 9.9394 16.8657C9.68042 16.8657 9.43141 16.7659 9.24415 16.587L6.2899 13.6327C6.10551 13.4483 6.00193 13.1983 6.00193 12.9375C6.00193 12.6767 6.10551 12.4266 6.2899 12.2422L7.50003 11.0302L11.8448 15.375L10.6347 16.587ZM21.3297 8.14011L16.0339 13.4355C15.895 13.5753 15.7298 13.6861 15.5477 13.7616C15.3657 13.837 15.1705 13.8756 14.9734 13.875H14.2767C13.9811 13.8741 13.6882 13.9319 13.4152 14.0451C13.1421 14.1583 12.8942 14.3245 12.6859 14.5342L12.375 14.8447L8.03065 10.5L8.34115 10.1895C8.55061 9.98092 8.71667 9.73293 8.82976 9.45984C8.94285 9.18674 9.00072 8.89395 9.00003 8.59836V7.90161C8.99952 7.70454 9.03806 7.50932 9.11343 7.32723C9.18881 7.14514 9.29951 6.9798 9.43915 6.84074L14.7349 1.54536C15.0085 1.28452 15.372 1.139 15.75 1.139C16.128 1.139 16.4916 1.28452 16.7652 1.54536L21.3297 6.10986C21.5988 6.37912 21.75 6.74426 21.75 7.12499C21.75 7.50571 21.5988 7.87085 21.3297 8.14011Z" fill="#7A5A2E"/>
<path d="M3.32138 19.6819C3.28554 19.6297 3.23755 19.5871 3.18156 19.5577C3.12557 19.5282 3.06326 19.5128 3 19.5128C2.93674 19.5128 2.87443 19.5282 2.81844 19.5577C2.76245 19.5871 2.71447 19.6297 2.67863 19.6819L1.74675 21.2351C1.58531 21.5039 1.50002 21.8115 1.5 22.125C1.5 22.5228 1.65804 22.9043 1.93934 23.1857C2.22064 23.467 2.60218 23.625 3 23.625C3.39782 23.625 3.77936 23.467 4.06066 23.1857C4.34196 22.9043 4.5 22.5228 4.5 22.125C4.49999 21.8116 4.41483 21.5042 4.25363 21.2355L3.32138 19.6819ZM3 22.875C2.80109 22.875 2.61032 22.796 2.46967 22.6553C2.32902 22.5147 2.25 22.3239 2.25 22.125C2.24981 21.9476 2.29804 21.7734 2.3895 21.6214L3 20.6036L3.6105 21.6217C3.702 21.7736 3.75024 21.9477 3.75 22.125C3.75 22.3239 3.67098 22.5147 3.53033 22.6553C3.38968 22.796 3.19891 22.875 3 22.875Z" fill="#7A5A2E"/>
<path d="M15.265 2.73486C15.1947 2.66455 15.0994 2.62506 14.9999 2.62506C14.9005 2.62506 14.8051 2.66455 14.7348 2.73486L10.2348 7.23486C10.1645 7.30518 10.125 7.40054 10.125 7.49998C10.125 7.59942 10.1645 7.69478 10.2348 7.76511L15.1098 12.6401C15.1801 12.7104 15.2755 12.7499 15.3749 12.7499C15.4744 12.7499 15.5697 12.7104 15.64 12.6401L20.14 8.14011C20.2103 8.06978 20.2498 7.97442 20.2498 7.87498C20.2498 7.77554 20.2103 7.68018 20.14 7.60986L15.265 2.73486ZM15.3749 11.8447L11.0302 7.49998L14.9999 3.53023L19.3447 7.87498L15.3749 11.8447Z" fill="#7A5A2E"/>
</svg>
