<svg width="24" height="24" viewBox="0 0 24 24" fill="none" xmlns="http://www.w3.org/2000/svg">
<path d="M7.67476 23.25H16.325C16.4301 23.25 16.5303 23.2059 16.6013 23.1284C16.6724 23.051 16.7077 22.9473 16.6986 22.8426L16.5382 20.9907L15.3196 7.04095C15.3193 7.03711 15.317 7.03402 15.3166 7.03022C15.3122 6.99261 15.3041 6.95535 15.2881 6.91992L14.0424 4.14727V1.125C14.0424 0.917908 13.8745 0.75 13.6674 0.75H10.3324C10.1253 0.75 9.95736 0.917908 9.95736 1.125V4.14709L8.70784 6.91956C8.69182 6.95503 8.68365 6.99239 8.67923 7.03006C8.67878 7.03393 8.67651 7.03706 8.67617 7.04095L7.46163 20.9905L7.30123 22.8426C7.29207 22.9473 7.32741 23.051 7.39846 23.1284C7.4695 23.2059 7.56966 23.25 7.67476 23.25ZM8.08364 22.5L8.17903 21.3981H15.8208L15.9162 22.5H8.08364ZM10.7074 1.5H13.2924V3.85254H10.7074V1.5ZM10.5746 4.60254H13.4248L14.3665 6.69855H9.62996L10.5746 4.60254ZM9.39339 7.44855H14.6024L15.7554 20.6481H8.24422L9.39339 7.44855Z" fill="#7A5A2E"/>
</svg>
