<svg width="24" height="24" viewBox="0 0 24 24" fill="none" xmlns="http://www.w3.org/2000/svg">
<path d="M23.4995 18.1573H21.0005C20.7244 18.1573 20.4995 18.3814 20.4995 18.6575C20.4995 18.9336 20.7236 19.1578 20.9998 19.1578H23.4995C23.7757 19.1578 23.9998 18.9336 23.9998 18.6575C23.9998 18.3814 23.7757 18.1573 23.4995 18.1573Z" fill="#7A5A2E"/>
<path d="M22.3164 14.5918C22.1208 14.397 21.8044 14.397 21.6088 14.5918L19.8415 16.3599C19.6459 16.5547 19.6459 16.8711 19.8415 17.0667C20.0364 17.2623 20.3528 17.2623 20.5483 17.0667L22.3149 15.2994C22.5105 15.1046 22.5112 14.7867 22.3164 14.5918Z" fill="#7A5A2E"/>
<path d="M22.3164 22.0164L20.5497 20.2506C20.3542 20.055 20.0363 20.0528 19.8415 20.2491C19.6459 20.4439 19.6459 20.7603 19.8415 20.9559L21.6081 22.7232C21.8037 22.918 22.1208 22.9188 22.3164 22.7232C22.5112 22.5284 22.5112 22.212 22.3164 22.0164Z" fill="#7A5A2E"/>
<path d="M12.5229 14.6578L9.312 2.67572L8.51587 2.88923L8.24344 1.8719C8.12405 1.42514 7.71975 1.13034 7.27809 1.13034C7.19241 1.13034 7.10522 1.14131 7.01883 1.16475L1.22316 2.71748C0.689953 2.86068 0.372797 3.40889 0.516375 3.94247L0.788812 4.95979L0 5.17106L4.68605 22.6573H14.6682H15.7786H18V14.6578H12.5229ZM1.72341 3.6187C1.79517 3.88565 2.06911 4.04386 2.33569 3.97247C2.60231 3.9007 2.76122 3.62676 2.68945 3.36018L3.17212 3.23053C3.24389 3.49715 3.51783 3.65568 3.78441 3.58429C4.05173 3.51253 4.20994 3.23859 4.13817 2.97164L4.62155 2.84236C4.69261 3.10898 4.9665 3.26714 5.23383 3.19575C5.50045 3.12436 5.65861 2.85042 5.58684 2.58347L6.07022 2.45418C6.14128 2.72081 6.41592 2.87897 6.6825 2.80757C6.94908 2.73618 7.10728 2.46225 7.03627 2.19529L7.27725 2.13047L7.55044 3.14817L1.75491 4.70086L1.48172 3.68353L1.72341 3.6187ZM14.6682 21.6575H5.45288L1.22461 5.87822L8.60522 3.90065L11.5818 15.0093L10.0847 16.5064C9.88912 16.7012 9.88912 17.0176 10.0847 17.2132C10.2802 17.4087 10.5967 17.4087 10.7915 17.2132L12.3472 15.6575H14.6682V21.6575ZM17.0002 21.6575H15.7786V15.6575H17.0002V21.6575Z" fill="#7A5A2E"/>
</svg>
