<svg width="24" height="24" viewBox="0 0 24 24" fill="none" xmlns="http://www.w3.org/2000/svg">
<path d="M16.5406 23.3514H7.45951C7.02943 23.3514 6.61697 23.1805 6.31285 22.8764C6.00874 22.5723 5.83789 22.1598 5.83789 21.7297V9.40541C5.83789 8.45923 6.21376 7.55181 6.88281 6.88276C7.55186 6.21371 8.45928 5.83784 9.40546 5.83784H14.5946C15.5408 5.83784 16.4482 6.21371 17.1173 6.88276C17.7863 7.55181 18.1622 8.45923 18.1622 9.40541V21.7297C18.1622 22.1598 17.9914 22.5723 17.6873 22.8764C17.3831 23.1805 16.9707 23.3514 16.5406 23.3514ZM9.40546 6.48649C8.63131 6.48649 7.88887 6.79402 7.34147 7.34143C6.79407 7.88883 6.48654 8.63127 6.48654 9.40541V21.7297C6.48654 21.9878 6.58905 22.2353 6.77152 22.4177C6.95398 22.6002 7.20146 22.7027 7.45951 22.7027H16.5406C16.7986 22.7027 17.0461 22.6002 17.2286 22.4177C17.4111 22.2353 17.5136 21.9878 17.5136 21.7297V9.40541C17.5136 8.63127 17.206 7.88883 16.6586 7.34143C16.1112 6.79402 15.3688 6.48649 14.5946 6.48649H9.40546Z" fill="#7A5A2E"/>
<path d="M15.5674 4.54054H8.43223C8.34622 4.54054 8.26372 4.50637 8.2029 4.44555C8.14208 4.38473 8.10791 4.30224 8.10791 4.21622V0.972975C8.10791 0.886959 8.14208 0.804466 8.2029 0.743644C8.26372 0.682821 8.34622 0.648651 8.43223 0.648651H15.5674C15.6534 0.648651 15.7359 0.682821 15.7967 0.743644C15.8575 0.804466 15.8917 0.886959 15.8917 0.972975V4.21622C15.8917 4.30224 15.8575 4.38473 15.7967 4.44555C15.7359 4.50637 15.6534 4.54054 15.5674 4.54054ZM8.75656 3.89189H15.243V1.2973H8.75656V3.89189Z" fill="#7A5A2E"/>
<path d="M14.2705 4.21622H14.9192V6.16216H14.2705V4.21622Z" fill="#7A5A2E"/>
<path d="M9.08105 4.21622H9.7297V6.16216H9.08105V4.21622Z" fill="#7A5A2E"/>
<path d="M12 17.8378C11.57 17.8378 11.1575 17.667 10.8534 17.3629C10.5493 17.0588 10.3784 16.6463 10.3784 16.2162C10.3784 15.4378 11.5071 13.7643 11.7341 13.4368C11.764 13.3939 11.8038 13.359 11.8501 13.3348C11.8964 13.3107 11.9478 13.2981 12 13.2981C12.0523 13.2981 12.1037 13.3107 12.15 13.3348C12.1963 13.359 12.2361 13.3939 12.266 13.4368C12.493 13.7611 13.6217 15.4378 13.6217 16.2162C13.6217 16.6463 13.4508 17.0588 13.1467 17.3629C12.8426 17.667 12.4301 17.8378 12 17.8378ZM12 14.2086C11.533 14.9384 11.0271 15.8627 11.0271 16.2162C11.0271 16.4743 11.1296 16.7217 11.312 16.9042C11.4945 17.0867 11.742 17.1892 12 17.1892C12.2581 17.1892 12.5056 17.0867 12.688 16.9042C12.8705 16.7217 12.973 16.4743 12.973 16.2162C12.973 15.8627 12.4671 14.9384 12 14.2086Z" fill="#7A5A2E"/>
<path d="M6.16211 11.3513H17.8378V12H6.16211V11.3513Z" fill="#7A5A2E"/>
<path d="M6.16211 19.1351H17.8378V19.7838H6.16211V19.1351Z" fill="#7A5A2E"/>
</svg>
