<svg width="24" height="24" viewBox="0 0 24 24" fill="none" xmlns="http://www.w3.org/2000/svg">
<g clip-path="url(#clip0_742_6910)">
<path fill-rule="evenodd" clip-rule="evenodd" d="M22.9229 19.2854C22.9229 20.214 22.1626 21.1055 20.7827 21.7961C19.33 22.5225 17.3916 22.9223 15.324 22.9223C13.2568 22.9223 11.3184 22.5225 9.86595 21.7961C8.48581 21.1055 7.72573 20.214 7.72573 19.2854V17.0986C8.14943 17.6185 8.77146 18.0909 9.57237 18.4917C11.1141 19.2629 13.1569 19.6881 15.324 19.6881C17.4915 19.6881 19.5342 19.2629 21.076 18.4917C21.8767 18.0909 22.4987 17.6185 22.9228 17.0986V19.2854H22.9229ZM4.39779 15.1434L2.85073 13.5966C2.98132 13.6098 3.11543 13.6173 3.25371 13.6173C3.82367 13.6173 4.4585 13.5041 5.14226 13.2765C6.77801 12.7313 8.52275 11.5876 10.0553 10.0546C11.5878 8.5223 12.7317 6.77756 13.2767 5.14224C13.5597 4.29239 13.6654 3.51839 13.5972 2.85094L15.1436 4.39735C16.3448 5.5988 15.5761 8.51761 13.359 11.2209C11.9407 11.3976 10.6371 11.7646 9.57242 12.2971C7.95828 13.1048 7.06962 14.2043 7.06962 15.3946V15.5788C5.89526 15.8504 4.95317 15.6989 4.39779 15.1434ZM1.38476 9.10378C0.897074 10.5675 0.989934 11.7356 1.64637 12.3918C2.30276 13.0487 3.4707 13.1415 4.93489 12.6534C4.94548 12.6503 4.95603 12.6464 4.96662 12.6428L7.83959 1.92108C6.68576 2.51156 5.51543 3.37974 4.44762 4.4475C2.98568 5.90902 1.89804 7.56286 1.38476 9.10378ZM9.1039 1.38464C8.93956 1.43911 8.7739 1.50089 8.6074 1.56858L8.61293 1.56989L5.72609 12.3442C7.03034 11.7609 8.37692 10.8052 9.59117 9.59053C11.0529 8.12902 12.1407 6.47541 12.654 4.93449C13.1417 3.47058 13.0489 2.30306 12.3929 1.64667L12.3925 1.64625C11.7357 0.989627 10.5678 0.896767 9.1039 1.38464ZM19.5089 12.3696C18.2752 11.9715 16.8342 11.7577 15.324 11.7577C13.2568 11.7577 11.3184 12.1576 9.86595 12.8842C8.48581 13.5745 7.72573 14.4661 7.72573 15.3947C7.72573 16.3229 8.48581 17.2144 9.86595 17.905C9.87589 17.91 9.88601 17.9147 9.89618 17.9196L19.5089 12.3696ZM22.9229 15.3947C22.9229 14.4661 22.1626 13.5745 20.7827 12.8842C20.6274 12.8067 20.4666 12.7333 20.3012 12.6634L20.304 12.6684L10.6444 18.2453C11.979 18.7553 13.6071 19.0319 15.324 19.0319C17.3916 19.0319 19.33 18.6314 20.7827 17.905C22.1622 17.2148 22.9225 16.3233 22.9229 15.3955V15.3947H22.9229ZM23.5791 15.3947C23.5791 14.2045 22.69 13.1049 21.0761 12.2972C19.5342 11.526 17.4916 11.1015 15.324 11.1015C14.9654 11.1015 14.61 11.1131 14.26 11.1361C15.2011 9.88327 15.8748 8.56931 16.1805 7.37625C16.5576 5.90306 16.3543 4.68 15.6077 3.93333L12.857 1.18256C12.8567 1.18256 12.8565 1.18214 12.8565 1.18214H12.8563C12.015 0.340877 10.6087 0.191767 8.89639 0.76172C7.26087 1.30697 5.51614 2.45063 3.98361 3.98339C2.45107 5.51592 1.30718 7.26042 0.762168 8.89594C0.191793 10.6082 0.34109 12.0146 1.18236 12.8558L3.93378 15.6075C4.436 16.1099 5.14976 16.366 6.0109 16.366C6.34287 16.366 6.69734 16.3269 7.06967 16.2502V19.2853C7.06967 20.4755 7.95832 21.575 9.57246 22.3827C11.1142 23.1539 13.1569 23.5786 15.3241 23.5786C17.4916 23.5786 19.5343 23.1538 21.0761 22.3827C22.69 21.575 23.5791 20.4754 23.5791 19.2853V15.3955C23.5791 15.3951 23.5791 15.3947 23.5791 15.3947Z" fill="#7A5A2E"/>
</g>
<defs>
<clipPath id="clip0_742_6910">
<rect width="24" height="24" fill="white"/>
</clipPath>
</defs>
</svg>
