<svg width="87" height="27" viewBox="0 0 87 27" fill="none" xmlns="http://www.w3.org/2000/svg">
<path d="M5.30998 20.16C4.28998 20.16 3.37998 19.97 2.57998 19.59C1.77998 19.19 1.14998 18.65 0.689976 17.97C0.229976 17.29 -2.43112e-05 16.51 -2.43112e-05 15.63C-2.43112e-05 14.79 0.179976 14.03 0.539976 13.35C0.899976 12.65 1.45998 12.06 2.21998 11.58C2.97998 11.1 3.94998 10.76 5.12998 10.56L11.43 9.50999V11.55L5.66998 12.51C4.50998 12.71 3.66998 13.08 3.14998 13.62C2.64998 14.16 2.39998 14.8 2.39998 15.54C2.39998 16.26 2.67998 16.87 3.23998 17.37C3.81998 17.87 4.55998 18.12 5.45998 18.12C6.55998 18.12 7.51998 17.89 8.33998 17.43C9.15998 16.95 9.79998 16.31 10.26 15.51C10.72 14.71 10.95 13.82 10.95 12.84V8.75999C10.95 7.79999 10.6 7.01999 9.89998 6.41999C9.19998 5.81999 8.28998 5.51999 7.16998 5.51999C6.18998 5.51999 5.32998 5.76999 4.58998 6.26999C3.84998 6.74999 3.29998 7.37999 2.93998 8.15999L0.899976 7.04999C1.19998 6.36999 1.66998 5.74999 2.30998 5.18999C2.96998 4.62999 3.71998 4.18999 4.55998 3.86999C5.39998 3.52999 6.26998 3.35999 7.16998 3.35999C8.34998 3.35999 9.38998 3.58999 10.29 4.04999C11.21 4.50999 11.92 5.14999 12.42 5.96999C12.94 6.76999 13.2 7.69999 13.2 8.75999V19.8H10.95V16.59L11.28 16.92C11 17.52 10.56 18.07 9.95998 18.57C9.37998 19.05 8.68998 19.44 7.88998 19.74C7.10998 20.02 6.24998 20.16 5.30998 20.16ZM21.7279 20.16C20.6079 20.16 19.5879 19.9 18.6679 19.38C17.7479 18.84 17.0179 18.1 16.4779 17.16C15.9579 16.2 15.6979 15.1 15.6979 13.86V3.71999H17.9479V13.59C17.9479 14.45 18.1179 15.21 18.4579 15.87C18.8179 16.51 19.3079 17.01 19.9279 17.37C20.5679 17.73 21.2979 17.91 22.1179 17.91C22.9379 17.91 23.6679 17.73 24.3079 17.37C24.9479 16.99 25.4479 16.46 25.8079 15.78C26.1679 15.08 26.3479 14.25 26.3479 13.29V3.71999H28.5979V19.8H26.3479V16.68L26.8579 16.8C26.4779 17.84 25.8279 18.66 24.9079 19.26C23.9879 19.86 22.9279 20.16 21.7279 20.16ZM39.0452 26.4C37.9452 26.4 36.9252 26.23 35.9852 25.89C35.0652 25.55 34.2652 25.08 33.5852 24.48C32.9252 23.9 32.4152 23.22 32.0552 22.44L34.1252 21.33C34.4452 22.09 35.0152 22.75 35.8352 23.31C36.6552 23.87 37.7052 24.15 38.9852 24.15C39.9652 24.15 40.8652 23.96 41.6852 23.58C42.5052 23.2 43.1652 22.64 43.6652 21.9C44.1652 21.16 44.4152 20.25 44.4152 19.17V15.6L44.7752 15.93C44.2152 17.09 43.3852 17.99 42.2852 18.63C41.1852 19.25 39.9852 19.56 38.6852 19.56C37.1852 19.56 35.8352 19.2 34.6352 18.48C33.4352 17.76 32.4852 16.79 31.7852 15.57C31.1052 14.33 30.7652 12.96 30.7652 11.46C30.7652 9.93999 31.1052 8.56999 31.7852 7.34999C32.4852 6.12999 33.4252 5.15999 34.6052 4.43999C35.8052 3.71999 37.1652 3.35999 38.6852 3.35999C39.9852 3.35999 41.1652 3.65999 42.2252 4.25999C43.3052 4.85999 44.1552 5.66999 44.7752 6.68999L44.4152 7.31999V3.71999H46.6652V19.17C46.6652 20.55 46.3352 21.78 45.6752 22.86C45.0352 23.96 44.1352 24.82 42.9752 25.44C41.8352 26.08 40.5252 26.4 39.0452 26.4ZM38.8052 17.31C39.8452 17.31 40.7852 17.05 41.6252 16.53C42.4652 15.99 43.1352 15.28 43.6352 14.4C44.1552 13.5 44.4152 12.52 44.4152 11.46C44.4152 10.4 44.1552 9.42999 43.6352 8.54999C43.1352 7.64999 42.4652 6.93999 41.6252 6.41999C40.7852 5.87999 39.8452 5.60999 38.8052 5.60999C37.7452 5.60999 36.7852 5.87999 35.9252 6.41999C35.0652 6.93999 34.3852 7.63999 33.8852 8.51999C33.4052 9.39999 33.1652 10.38 33.1652 11.46C33.1652 12.52 33.4052 13.5 33.8852 14.4C34.3852 15.28 35.0552 15.99 35.8952 16.53C36.7552 17.05 37.7252 17.31 38.8052 17.31ZM55.1885 20.16C54.0685 20.16 53.0485 19.9 52.1285 19.38C51.2085 18.84 50.4785 18.1 49.9385 17.16C49.4185 16.2 49.1585 15.1 49.1585 13.86V3.71999H51.4085V13.59C51.4085 14.45 51.5785 15.21 51.9185 15.87C52.2785 16.51 52.7685 17.01 53.3885 17.37C54.0285 17.73 54.7585 17.91 55.5785 17.91C56.3985 17.91 57.1285 17.73 57.7685 17.37C58.4085 16.99 58.9085 16.46 59.2685 15.78C59.6285 15.08 59.8085 14.25 59.8085 13.29V3.71999H62.0585V19.8H59.8085V16.68L60.3185 16.8C59.9385 17.84 59.2885 18.66 58.3685 19.26C57.4485 19.86 56.3885 20.16 55.1885 20.16ZM70.4658 20.16C68.9258 20.16 67.5758 19.77 66.4158 18.99C65.2558 18.21 64.4158 17.15 63.8958 15.81L65.7858 14.91C66.2458 15.89 66.8858 16.67 67.7058 17.25C68.5458 17.83 69.4658 18.12 70.4658 18.12C71.4258 18.12 72.2358 17.89 72.8958 17.43C73.5558 16.95 73.8858 16.33 73.8858 15.57C73.8858 15.01 73.7258 14.57 73.4058 14.25C73.0858 13.91 72.7158 13.65 72.2958 13.47C71.8758 13.29 71.5058 13.16 71.1858 13.08L68.8758 12.42C67.3958 12 66.3258 11.41 65.6658 10.65C65.0058 9.88999 64.6758 9.00999 64.6758 8.00999C64.6758 7.06999 64.9158 6.24999 65.3958 5.54999C65.8758 4.84999 66.5258 4.30999 67.3458 3.92999C68.1658 3.54999 69.0758 3.35999 70.0758 3.35999C71.4358 3.35999 72.6658 3.71999 73.7658 4.43999C74.8858 5.13999 75.6758 6.11999 76.1358 7.37999L74.2158 8.27999C73.8158 7.37999 73.2358 6.67999 72.4758 6.17999C71.7358 5.65999 70.9058 5.39999 69.9858 5.39999C69.0858 5.39999 68.3658 5.62999 67.8258 6.08999C67.2858 6.54999 67.0158 7.12999 67.0158 7.82999C67.0158 8.36999 67.1558 8.79999 67.4358 9.11999C67.7158 9.43999 68.0358 9.67999 68.3958 9.83999C68.7758 9.99999 69.1058 10.12 69.3858 10.2L72.0558 10.98C73.3558 11.36 74.3658 11.95 75.0858 12.75C75.8258 13.55 76.1958 14.49 76.1958 15.57C76.1958 16.45 75.9458 17.24 75.4458 17.94C74.9658 18.64 74.2958 19.19 73.4358 19.59C72.5758 19.97 71.5858 20.16 70.4658 20.16ZM84.4994 19.98C83.0594 19.98 81.9494 19.56 81.1694 18.72C80.3894 17.88 79.9994 16.68 79.9994 15.12V5.96999H77.0294V3.71999H77.7794C78.4594 3.71999 78.9994 3.49999 79.3994 3.05999C79.7994 2.59999 79.9994 2.02999 79.9994 1.34999V-1.29938e-05H82.2494V3.71999H85.7894V5.96999H82.2494V15.12C82.2494 15.66 82.3294 16.14 82.4894 16.56C82.6494 16.96 82.9194 17.28 83.2994 17.52C83.6994 17.76 84.2294 17.88 84.8894 17.88C85.0494 17.88 85.2394 17.87 85.4594 17.85C85.6794 17.83 85.8694 17.81 86.0294 17.79V19.8C85.7894 19.86 85.5194 19.9 85.2194 19.92C84.9194 19.96 84.6794 19.98 84.4994 19.98Z" fill="#206E55"/>
</svg>
