<svg width="28" height="11" viewBox="0 0 28 11" fill="none" xmlns="http://www.w3.org/2000/svg">
<path d="M0.0790024 0.00311111C1.305 0.0891111 2.348 0.885111 3.416 1.44011C4.906 2.21111 6.479 2.56211 8.113 2.89311C10.565 3.39011 12.015 4.83311 12.944 6.79811C13.005 6.75411 13.064 6.71111 13.125 6.67111C13.779 6.26411 14.354 5.86511 15.086 5.61111C16.532 5.11411 18.123 5.26711 19.593 5.54211C22.179 6.02011 25.113 8.75611 27.819 8.00411C27.872 7.98711 27.923 7.98711 27.979 7.99411C25.664 10.0211 22.363 8.20811 19.64 8.03411C19.199 8.00411 18.771 8.01311 18.344 8.04711C17.923 8.03411 17.489 8.05411 17.047 8.12711C16.526 8.20811 16.052 8.42811 15.591 8.69511C14.675 9.05211 13.79 9.53011 12.945 10.0821C12.193 10.2051 11.379 9.62411 11.168 8.91611C11.121 8.67611 11.055 8.43411 10.975 8.20811C10.661 7.04811 10.253 6.01611 9.027 5.45511C8.754 5.32811 8.463 5.23411 8.162 5.15411C7.724 4.90011 7.273 4.68611 6.809 4.48211C4.266 3.36311 1.343 2.45711 0 0.00311111C0.026 0.00311111 0.0460024 -0.00388889 0.0790024 0.00311111Z" fill="black"/>
</svg>
