<svg width="100" height="33" viewBox="0 0 100 33" fill="none" xmlns="http://www.w3.org/2000/svg">
<path d="M53.6942 10.3288C54.9202 10.4148 55.9632 11.2108 57.0312 11.7658C58.5212 12.5368 60.0942 12.8878 61.7282 13.2188C64.1802 13.7158 65.6302 15.1588 66.5592 17.1238C66.6202 17.0798 66.6792 17.0368 66.7402 16.9968C67.3942 16.5898 67.9692 16.1908 68.7012 15.9368C70.1472 15.4398 71.7382 15.5928 73.2082 15.8678C75.7942 16.3458 78.7282 19.0818 81.4342 18.3298C81.4872 18.3128 81.5382 18.3128 81.5942 18.3198C79.2792 20.3468 75.9782 18.5338 73.2552 18.3598C72.8142 18.3298 72.3862 18.3388 71.9592 18.3728C71.5382 18.3598 71.1042 18.3798 70.6622 18.4528C70.1412 18.5338 69.6672 18.7538 69.2062 19.0208C68.2902 19.3778 67.4052 19.8558 66.5602 20.4078C65.8082 20.5308 64.9942 19.9498 64.7832 19.2418C64.7362 19.0018 64.6702 18.7598 64.5902 18.5338C64.2762 17.3738 63.8682 16.3418 62.6422 15.7808C62.3692 15.6538 62.0782 15.5598 61.7772 15.4798C61.3392 15.2258 60.8882 15.0118 60.4242 14.8078C57.8812 13.6888 54.9582 12.7828 53.6152 10.3288C53.6412 10.3288 53.6612 10.3218 53.6942 10.3288Z" fill="black"/>
<path d="M84.6337 29.1108C85.2517 28.9968 85.8697 29.2548 86.4647 29.3908C87.3067 29.5838 88.1277 29.5578 88.9807 29.5108C90.2597 29.4448 91.1587 29.9718 91.8707 30.8268C91.8937 30.7938 91.9177 30.7658 91.9437 30.7398C92.2177 30.4528 92.4517 30.1818 92.7787 29.9648C93.4307 29.5308 94.2357 29.4038 94.9977 29.3508C96.3407 29.2568 98.1417 30.2398 99.3847 29.5208C99.4047 29.5038 99.4347 29.4978 99.4607 29.4918C98.5787 30.7908 96.7147 30.3198 95.3417 30.5768C95.1217 30.6208 94.9077 30.6798 94.7007 30.7508C94.4897 30.8018 94.2827 30.8648 94.0687 30.9548C93.8217 31.0648 93.6147 31.2348 93.4207 31.4228C93.0137 31.7198 92.6467 32.0708 92.2887 32.4518C91.9367 32.6118 91.4567 32.4248 91.2627 32.1038C91.2097 31.9898 91.1497 31.8798 91.0787 31.7768C90.7707 31.2418 90.4367 30.7808 89.7597 30.6608C89.6127 30.6348 89.4517 30.6278 89.2947 30.6208C89.0447 30.5578 88.7907 30.5078 88.5367 30.4668C87.1337 30.2398 85.5697 30.1628 84.5947 29.1208C84.6037 29.1168 84.6197 29.1138 84.6337 29.1108Z" fill="black"/>
<path d="M39.9531 19.9429C40.5811 20.0199 41.0891 20.4509 41.6241 20.7649C42.3651 21.1999 43.1571 21.4159 43.9821 21.6259C45.2211 21.9409 45.9261 22.7159 46.3501 23.7439C46.3801 23.7179 46.4131 23.6969 46.4441 23.6839C46.7891 23.4899 47.0891 23.2989 47.4731 23.1889C48.2251 22.9719 49.0331 23.0889 49.7751 23.2659C51.0781 23.5829 52.5111 25.0499 53.9081 24.7329C53.9381 24.7329 53.9651 24.7329 53.9911 24.7329C52.7591 25.7119 51.1181 24.7029 49.7351 24.5399C49.5071 24.5189 49.2871 24.5099 49.0731 24.5189C48.8561 24.4989 48.6331 24.4989 48.4051 24.5259C48.1381 24.5519 47.8901 24.6529 47.6501 24.7799C47.1751 24.9369 46.7081 25.1609 46.2601 25.4149C45.8791 25.4619 45.4781 25.1469 45.3851 24.7759C45.3641 24.6529 45.3451 24.5289 45.3051 24.4089C45.1711 23.8109 44.9971 23.2759 44.3821 22.9559C44.2451 22.8829 44.1021 22.8289 43.9481 22.7789C43.7271 22.6409 43.5071 22.5139 43.2761 22.4009C42.0061 21.7659 40.5331 21.2319 39.9121 19.9419C39.9271 19.9429 39.9401 19.9429 39.9531 19.9429Z" fill="black"/>
<path d="M9.96641 0.00475978C10.9554 -0.0552402 11.8704 0.46576 12.7794 0.79276C14.0594 1.25376 15.3524 1.35976 16.6884 1.45076C18.7034 1.58476 20.0094 2.57976 20.9614 4.05376C21.0044 4.00676 21.0444 3.96276 21.0914 3.92676C21.5664 3.53276 21.9874 3.15176 22.5484 2.87376C23.6444 2.32276 24.9334 2.26976 26.1324 2.32976C28.2474 2.43876 30.8864 4.30776 32.9574 3.41476C32.9974 3.39576 33.0444 3.39076 33.0884 3.38576C31.4574 5.25976 28.6284 4.16676 26.4374 4.31476C26.0834 4.34076 25.7394 4.39476 25.4014 4.46476C25.0644 4.50076 24.7264 4.56476 24.3794 4.66776C23.9724 4.79176 23.6214 5.01576 23.2764 5.27876C22.5824 5.66376 21.9334 6.13776 21.3124 6.67276C20.7274 6.85376 20.0154 6.47276 19.7724 5.93076C19.7094 5.74376 19.6284 5.56376 19.5424 5.38276C19.1614 4.49376 18.7334 3.71276 17.6904 3.39576C17.4604 3.32576 17.2164 3.28276 16.9684 3.25176C16.5944 3.09776 16.2064 2.97076 15.8204 2.85676C13.6684 2.23576 11.2364 1.82776 9.89941 0.0167608C9.91941 0.0147608 9.94041 0.00475978 9.96641 0.00475978Z" fill="black"/>
<path d="M36.6686 11.6746C37.1526 11.5216 37.6746 11.6576 38.1656 11.7046C38.8566 11.7656 39.5126 11.6576 40.1836 11.5306C41.1966 11.3376 41.9746 11.6616 42.6326 12.2726C42.6496 12.2426 42.6586 12.2126 42.6796 12.1916C42.8636 11.9316 43.0236 11.6946 43.2606 11.4836C43.7386 11.0696 44.3656 10.8796 44.9676 10.7546C46.0276 10.5346 47.5726 11.1226 48.4856 10.4176C48.5026 10.4006 48.5256 10.3946 48.5466 10.3916C47.9786 11.5206 46.4426 11.3436 45.3756 11.6976C45.2026 11.7586 45.0416 11.8246 44.8856 11.9046C44.7176 11.9676 44.5576 12.0386 44.4006 12.1386C44.2166 12.2516 44.0706 12.4056 43.9366 12.5786C43.6426 12.8596 43.3816 13.1776 43.1376 13.5206C42.8736 13.6806 42.4736 13.5866 42.2836 13.3506C42.2296 13.2666 42.1666 13.1866 42.0986 13.1066C41.7976 12.7186 41.4846 12.3846 40.9266 12.3646C40.8026 12.3586 40.6826 12.3646 40.5516 12.3856C40.3486 12.3556 40.1416 12.3416 39.9346 12.3386C38.7916 12.3056 37.5356 12.4156 36.6436 11.6906C36.6486 11.6836 36.6586 11.6776 36.6686 11.6746Z" fill="black"/>
<path d="M0.0299988 9.15894C0.540999 9.14894 0.991999 9.43994 1.446 9.63394C2.088 9.90094 2.743 9.98794 3.425 10.0679C4.45 10.1839 5.092 10.7259 5.542 11.5009C5.569 11.4809 5.589 11.4609 5.609 11.4439C5.87 11.2509 6.087 11.0699 6.384 10.9399C6.958 10.6859 7.616 10.6959 8.225 10.7549C9.304 10.8629 10.6 11.8849 11.682 11.4839C11.703 11.4769 11.726 11.4709 11.749 11.4709C10.87 12.3859 9.45 11.7539 8.328 11.7749C8.147 11.7779 7.971 11.7979 7.797 11.8249C7.626 11.8349 7.452 11.8579 7.269 11.9049C7.059 11.9589 6.872 12.0649 6.691 12.1859C6.331 12.3659 5.983 12.5929 5.656 12.8469C5.355 12.9239 4.998 12.7129 4.888 12.4329C4.858 12.3359 4.824 12.2389 4.784 12.1459C4.613 11.6809 4.413 11.2739 3.888 11.0839C3.771 11.0399 3.651 11.0099 3.521 10.9899C3.337 10.9029 3.143 10.8299 2.95 10.7629C1.864 10.3929 0.632 10.1209 0 9.15894C0.01 9.15894 0.0199988 9.15894 0.0299988 9.15894Z" fill="black"/>
</svg>
